<?xml version="1.0" standalone="no"?>
<!DOCTYPE svg PUBLIC "-//W3C//DTD SVG 20010904//EN"
 "http://www.w3.org/TR/2001/REC-SVG-20010904/DTD/svg10.dtd">
<svg version="1.0" xmlns="http://www.w3.org/2000/svg"
 width="260.000000pt" height="260.000000pt" viewBox="0 0 260.000000 260.000000"
 preserveAspectRatio="xMidYMid meet">
<metadata>
Created by potrace 1.11, written by Peter Selinger 2001-2013
</metadata>
<g transform="translate(0.000000,260.000000) scale(0.100000,-0.100000)"
fill="#000000" stroke="none">
<path d="M1225 2560 c-145 -25 -308 -75 -390 -120 -16 -9 -55 -29 -85 -45
-145 -77 -325 -242 -423 -387 -142 -212 -207 -418 -212 -678 -8 -356 112 -663
356 -911 90 -91 121 -117 224 -183 165 -106 357 -176 565 -205 62 -9 333 -8
375 2 11 2 42 8 69 12 69 10 285 70 342 95 163 72 371 188 375 208 7 33 3 925
-4 929 -8 5 -276 7 -349 4 -15 -1 -16 -31 -16 -338 0 -186 -1 -345 -1 -354 -1
-20 -158 -98 -266 -132 -170 -53 -319 -64 -490 -36 -420 69 -742 439 -748 859
-1 92 7 172 23 235 6 22 12 47 14 56 2 8 16 43 30 76 99 236 299 420 547 503
106 36 204 49 334 45 118 -3 140 -6 220 -26 22 -6 52 -13 68 -16 15 -3 30 -9
33 -14 3 -5 12 -9 21 -9 40 0 264 -130 329 -192 l31 -29 29 38 c15 21 32 43
36 48 5 6 47 60 93 120 l85 110 -27 23 c-168 140 -448 268 -673 306 -19 3 -46
9 -60 12 -64 15 -357 11 -455 -6z"/>
</g>
</svg>
