<?xml version="1.0" encoding="utf-8"?>
<!-- Generator: Adobe Illustrator 19.2.0, SVG Export Plug-In . SVG Version: 6.00 Build 0)  -->
<svg version="1.1" id="Layer_1" xmlns="http://www.w3.org/2000/svg" xmlns:xlink="http://www.w3.org/1999/xlink" x="0px" y="0px"
	 viewBox="0 0 24 24" style="enable-background:new 0 0 24 24;" xml:space="preserve">
<path d="M21.8,8.5c-0.3,0-0.6,0.3-0.6,0.6v1.7H8.5C8.2,9.5,7,8.5,5.6,8.5H2.8V6.8c0-0.3-0.3-0.6-0.6-0.6S1.6,6.5,1.6,6.8v2.3v2.3
	v5.8c0,0.3,0.3,0.6,0.6,0.6s0.6-0.3,0.6-0.6v-1.7h18.5v1.7c0,0.3,0.3,0.6,0.6,0.6c0.3,0,0.6-0.3,0.6-0.6V9.1
	C22.4,8.8,22.1,8.5,21.8,8.5z M2.8,9.7h2.9c0.8,0,1.4,0.5,1.6,1.2H2.8V9.7z M21.2,14.3H2.8V12H8h13.3L21.2,14.3L21.2,14.3z"/>
</svg>
