<?xml version="1.0" encoding="utf-8"?>
<!-- Generator: Adobe Illustrator 19.2.0, SVG Export Plug-In . SVG Version: 6.00 Build 0)  -->
<svg version="1.1" id="Layer_1" xmlns="http://www.w3.org/2000/svg" xmlns:xlink="http://www.w3.org/1999/xlink" x="0px" y="0px"
	 viewBox="0 0 24 24" style="enable-background:new 0 0 24 24;" xml:space="preserve">
<g>
	<path d="M14.7,4.1H6.1C3.3,4.1,1,6.3,1,9.1v8.2c0,0.3,0.2,0.5,0.5,0.5H4c0.3,1.4,1.6,2.3,3,2.1c1.1-0.2,1.9-1,2.1-2.1h7.1
		c0.3,1.4,1.6,2.3,3,2.1c1.1-0.2,1.9-1,2.1-2.1h1.4c0.3,0,0.5-0.2,0.5-0.5v-5.9c0-0.1,0-0.2-0.1-0.2l-1.5-2.6
		c-0.4-0.7-1.2-1.2-2-1.2h-4.3v-3C15.2,4.3,15,4.1,14.7,4.1z M4,16.9H1.9V9.1C1.9,6.9,3.8,5,6.1,5h8.2v11.9H9
		c-0.3-1.4-1.6-2.3-3-2.1C5,15,4.2,15.8,4,16.9z M6.5,19c-0.9,0-1.6-0.7-1.6-1.6s0.7-1.6,1.6-1.6s1.6,0.7,1.6,1.6l0,0
		C8.1,18.3,7.4,19,6.5,19L6.5,19L6.5,19z M16.1,16.9h-1V12H22v4.9h-0.9c-0.3-1.4-1.6-2.3-3-2.1C17.2,15,16.3,15.8,16.1,16.9z
		 M18.7,19c-0.9,0-1.6-0.7-1.7-1.6c0-0.9,0.7-1.6,1.6-1.7c0.9,0,1.6,0.7,1.7,1.6l0,0C20.3,18.3,19.6,19,18.7,19L18.7,19L18.7,19z
		 M19.5,8.4c0.5,0,1,0.3,1.2,0.7l1.1,1.9h-6.6V8.4H19.5z"/>
	<path d="M7.4,8.1H12c0.3,0,0.5-0.2,0.5-0.5S12.3,7.2,12,7.2H7.4c-0.3,0-0.5,0.2-0.5,0.5S7.1,8.1,7.4,8.1z"/>
	<path d="M12.5,10.2c0-0.3-0.2-0.5-0.5-0.5H4.3C4,9.8,3.8,10,3.8,10.2c0,0.3,0.2,0.5,0.5,0.5H12C12.3,10.7,12.5,10.5,12.5,10.2z"/>
	<path d="M12,12.3H9.6c-0.3,0-0.5,0.2-0.5,0.5s0.2,0.5,0.5,0.5H12c0.3,0,0.5-0.2,0.5-0.5S12.3,12.3,12,12.3z"/>
</g>
</svg>
