<?xml version="1.0" encoding="utf-8"?>
<!-- Generator: Adobe Illustrator 19.2.0, SVG Export Plug-In . SVG Version: 6.00 Build 0)  -->
<svg version="1.1" id="Layer_1" xmlns="http://www.w3.org/2000/svg" xmlns:xlink="http://www.w3.org/1999/xlink" x="0px" y="0px"
	 viewBox="0 0 24 24" style="enable-background:new 0 0 24 24;" xml:space="preserve">
<g>
	<path d="M11.7,5.2c-0.2,0-0.3,0.2-0.3,0.3v4.9c0,0.8-0.6,1.5-1.3,1.6V5.6c0-0.2-0.2-0.3-0.3-0.3c-0.2,0-0.3,0.2-0.3,0.3v6.6
		C8.6,12,8,11.3,8,10.5V5.6c0-0.2-0.2-0.3-0.3-0.3c-0.2,0-0.3,0.2-0.3,0.3v4.9c0,0.8,0.4,1.5,1,1.9v5.1c0,0.9,0.6,1.6,1.4,1.6
		c0.7,0,1.4-0.7,1.4-1.6v-5.1c0.6-0.4,1-1.1,1-1.9V5.6C12,5.4,11.9,5.2,11.7,5.2z M10.4,17.5c0,0.5-0.3,0.9-0.7,0.9S9,18,9,17.5
		v-4.8c0.2,0.1,0.4,0.1,0.7,0.1c0.2,0,0.5,0,0.7-0.1V17.5z"/>
	<path d="M16.3,4.9c-1.6,0-2.9,1.2-2.9,2.6v6.7c0,0.2,0.1,0.3,0.3,0.3v3c0,0.9,0.6,1.6,1.4,1.6c0.7,0,1.4-0.7,1.4-1.6v-3
		c0.2,0,0.3-0.2,0.3-0.3v-9C16.7,5,16.5,4.9,16.3,4.9z M14.1,7.4c0-0.9,0.8-1.7,1.9-1.9v8.3h-1.9V7.4z M15,18.5
		c-0.4,0-0.7-0.4-0.7-0.9v-3h1.3v3C15.7,18,15.4,18.5,15,18.5z"/>
</g>
</svg>
