<?xml version="1.0" standalone="no"?>
<!DOCTYPE svg PUBLIC "-//W3C//DTD SVG 20010904//EN"
 "http://www.w3.org/TR/2001/REC-SVG-20010904/DTD/svg10.dtd">
<svg version="1.0" xmlns="http://www.w3.org/2000/svg"
 width="1024.000000pt" height="1024.000000pt" viewBox="0 0 1024.000000 1024.000000"
 preserveAspectRatio="xMidYMid meet">
<metadata>
Created by potrace 1.11, written by Peter Selinger 2001-2013
</metadata>
<g transform="translate(0.000000,1024.000000) scale(0.100000,-0.100000)"
fill="#000000" stroke="none">
<path d="M4913 10044 c-371 -65 -681 -292 -856 -625 -51 -97 -101 -242 -113
-329 -41 -287 -13 -491 101 -726 118 -243 297 -425 542 -548 65 -32 200 -81
253 -91 113 -22 157 -27 240 -28 90 -1 225 9 239 17 4 3 26 7 50 11 24 3 81
20 127 36 404 142 700 493 779 919 4 19 8 96 10 170 6 195 -28 361 -107 530
-112 237 -337 462 -569 568 -74 35 -201 78 -250 86 -19 3 -56 10 -83 15 -69
13 -278 10 -363 -5z"/>
<path d="M786 7689 c-42 -12 -81 -40 -106 -77 -33 -48 -35 -140 -4 -192 98
-163 261 -432 279 -460 21 -33 458 -754 480 -792 6 -9 37 -61 70 -115 33 -54
65 -107 71 -118 6 -11 62 -103 124 -205 62 -102 138 -228 170 -280 31 -52 121
-201 200 -330 150 -248 152 -250 216 -357 22 -37 86 -142 141 -233 363 -598
451 -743 487 -803 23 -38 48 -81 57 -95 33 -55 464 -764 530 -872 5 -8 47 -78
93 -155 71 -119 91 -145 132 -170 l47 -30 1346 0 c1280 1 1348 2 1380 19 19
10 42 26 51 35 15 13 132 199 200 316 45 79 687 1136 716 1182 19 28 34 54 34
58 0 3 18 33 40 65 22 32 40 62 40 66 0 3 12 25 28 48 22 33 331 541 367 604
9 14 76 126 182 300 13 20 39 64 58 97 20 33 90 148 156 255 66 107 123 203
126 213 3 9 9 17 14 17 5 0 9 4 9 10 0 5 56 101 124 212 154 254 256 422 341
563 37 61 96 160 133 220 37 61 157 259 267 440 l200 330 0 61 c0 73 -27 120
-90 156 l-40 22 -1342 1 -1341 0 -43 -30 c-36 -25 -81 -92 -281 -420 -131
-214 -241 -397 -245 -406 -6 -11 -154 -256 -224 -369 -24 -40 -344 -570 -363
-601 -146 -247 -487 -804 -495 -807 -4 -1 -50 68 -102 155 -52 87 -97 163
-102 168 -7 9 -426 701 -467 770 -28 49 -621 1027 -642 1060 -10 17 -72 118
-137 225 -93 155 -126 201 -160 225 l-42 30 -1330 0 c-731 0 -1340 -3 -1353
-6z"/>
<path d="M4253 1954 c-23 -8 -58 -30 -78 -49 -84 -80 -96 -194 -32 -306 73
-127 88 -152 396 -673 61 -103 111 -192 111 -197 0 -5 5 -9 10 -9 6 0 10 -4
10 -10 0 -5 27 -55 61 -112 33 -57 64 -110 69 -118 143 -243 164 -269 238
-295 54 -18 88 -19 148 -4 86 22 100 42 470 689 191 333 360 628 376 655 16
28 41 75 55 105 59 121 13 254 -107 315 l-48 24 -818 0 c-699 0 -825 -3 -861
-15z"/>
</g>
</svg>
