<?xml version="1.0" encoding="utf-8"?>
<!-- Generator: Adobe Illustrator 19.2.0, SVG Export Plug-In . SVG Version: 6.00 Build 0)  -->
<svg version="1.1" id="Layer_1" xmlns="http://www.w3.org/2000/svg" xmlns:xlink="http://www.w3.org/1999/xlink" x="0px" y="0px"
	 viewBox="0 0 24 24" style="enable-background:new 0 0 24 24;" xml:space="preserve">
<path d="M9.4,9V7.6C9.4,6.2,10.6,5,12,5s2.6,1.2,2.6,2.6V9c0,0.2-0.2,0.3-0.3,0.3S13.9,9.2,13.9,9V7.6c0-1-0.9-1.9-1.9-1.9
	s-1.9,0.9-1.9,1.9V9c0,0.2-0.2,0.3-0.3,0.3S9.4,9.2,9.4,9z M17.3,8.1L17.3,8.1c0-0.8-0.7-1.4-1.4-1.4H15c0,0.3,0,0.5,0,0.8h0.8
	c0.4,0,0.7,0.3,0.7,0.7l0,0l0.4,9.3c0,0.2-0.1,0.4-0.2,0.5s-0.3,0.2-0.5,0.2H7.7c-0.2,0-0.4-0.1-0.5-0.2C7,17.9,7,17.7,7,17.5
	l0.4-9.3c0-0.4,0.3-0.7,0.7-0.7H9C9,7.2,9,7,9.1,6.8h-1c-0.8,0-1.4,0.6-1.4,1.4l-0.4,9.3c0,0.4,0.1,0.8,0.4,1c0.3,0.3,0.6,0.4,1,0.4
	h8.6c0.4,0,0.7-0.2,1-0.4c0.3-0.3,0.4-0.6,0.4-1L17.3,8.1z"/>
</svg>
