<?xml version="1.0" encoding="utf-8"?>
<!-- Generator: Adobe Illustrator 19.2.0, SVG Export Plug-In . SVG Version: 6.00 Build 0)  -->
<svg version="1.1" id="Layer_1" xmlns="http://www.w3.org/2000/svg" xmlns:xlink="http://www.w3.org/1999/xlink" x="0px" y="0px"
	 viewBox="0 0 24 24" style="enable-background:new 0 0 24 24;" xml:space="preserve">
<path d="M17.6,6.5H6.4c-0.3,0-0.6,0.3-0.6,0.6v3.5c0,0.3,0.3,0.6,0.6,0.6S7,10.9,7,10.6v-3h4.5v2.5c-0.8,0.2-1.4,1-1.4,1.9
	s0.6,1.6,1.4,1.9v2.5H6.9v-3c0-0.3-0.3-0.6-0.6-0.6s-0.6,0.3-0.6,0.6v3.5c0,0.3,0.3,0.6,0.6,0.6h11.2c0.3,0,0.6-0.3,0.6-0.6v-3.5
	c0-0.3-0.3-0.6-0.6-0.6c-0.3,0-0.6,0.3-0.6,0.6v3h-4.5v-2.5c0.8-0.2,1.4-1,1.4-1.9s-0.6-1.6-1.4-1.9V7.6h4.5v3
	c0,0.3,0.3,0.6,0.6,0.6c0.3,0,0.6-0.3,0.6-0.6V7.1C18.2,6.8,17.9,6.5,17.6,6.5z M12.8,12c0,0.5-0.4,0.8-0.8,0.8s-0.8-0.4-0.8-0.8
	s0.4-0.8,0.8-0.8S12.8,11.5,12.8,12z M22.4,16.2V7.8c0-3-2.5-5.5-5.5-5.5H7.1c-3,0-5.5,2.5-5.5,5.5v8.4c0,3,2.5,5.5,5.5,5.5h9.8
	C20,21.7,22.4,19.2,22.4,16.2z M16.9,20.6H7.1c-2.4,0-4.4-2-4.4-4.4V7.8c0-2.4,2-4.4,4.4-4.4h9.8c2.4,0,4.4,2,4.4,4.4v8.4
	C21.3,18.6,19.3,20.6,16.9,20.6z"/>
</svg>
