<?xml version="1.0" encoding="utf-8"?>
<!-- Generator: Adobe Illustrator 19.2.0, SVG Export Plug-In . SVG Version: 6.00 Build 0)  -->
<svg version="1.1" id="Layer_1" xmlns="http://www.w3.org/2000/svg" xmlns:xlink="http://www.w3.org/1999/xlink" x="0px" y="0px"
	 viewBox="0 0 24 24" style="enable-background:new 0 0 24 24;" xml:space="preserve">
<g transform="translate(0,-952.36218)">
	<path d="M3.4,955.3c-0.3,0-0.4,0.3-0.4,0.5c0,0.1,0.1,0.2,0.1,0.3l0.8,0.8v7.2c0,0.1,0.1,0.2,0.1,0.3c0,0,2.1,2.1,4.2,4.2
		c1.1,1.1,2.1,2.1,2.9,2.9c0.4,0.4,0.7,0.7,1,1c0.1,0.1,0.2,0.2,0.3,0.3s0.1,0.1,0.1,0.1c0.2,0.2,0.5,0.4,0.8,0.4s0.7-0.2,0.9-0.4
		l0,0c0,0,0,0,0.1-0.1c0-0.1,0.1-0.1,0.2-0.2c0.2-0.2,0.4-0.4,0.7-0.7c0.6-0.6,1.4-1.4,2.2-2.2c1.6-1.6,3.1-3.1,3.2-3.2l0,0
		c0.2-0.2,0.4-0.5,0.4-0.8s-0.2-0.7-0.4-0.9l0,0l0,0c0,0,0,0-0.1-0.1s-0.2-0.2-0.3-0.3c-0.1-0.1-0.2-0.2-0.2-0.2l0.9-3.4l0,0l0,0
		c0.1-0.3,0.1-0.6-0.1-0.9c-0.2-0.3-0.5-0.5-0.8-0.5l-6.9-1.8l0,0c-0.3-0.3-1.1-1.1-1.1-1.1c-0.1-0.1-0.2-0.1-0.3-0.1H4.6l-0.8-0.8
		C3.7,955.4,3.5,955.3,3.4,955.3z M5.5,957.2h6.1c0.1,0.1,2,2,4.1,4.1c1.1,1.1,2.1,2.1,2.9,2.9c0.4,0.4,0.7,0.7,1,1
		c0.1,0.1,0.2,0.2,0.3,0.3l0.1,0.1l0,0l0,0c0.1,0,0.1,0.1,0.1,0.2c0,0.1,0,0.1-0.1,0.2l0,0c0,0-1.6,1.6-3.2,3.2
		c-0.8,0.8-1.6,1.6-2.2,2.2c-0.3,0.3-0.6,0.6-0.7,0.7c-0.1,0.1-0.2,0.2-0.2,0.2s0,0-0.1,0.1s0,0,0,0c0,0.1-0.1,0.1-0.2,0.1
		c-0.1,0-0.1,0-0.2-0.1l-0.1-0.1c-0.1-0.1-0.2-0.2-0.3-0.3c-0.2-0.2-0.6-0.6-1-1c-0.8-0.8-1.9-1.9-2.9-2.9c-2-2.1-3.9-4-4.1-4.1
		v-6.1l1.1,1.1c-0.1,0.2-0.1,0.4-0.1,0.6c0,0.8,0.6,1.4,1.4,1.4s1.4-0.6,1.4-1.4s-0.6-1.4-1.4-1.4c-0.2,0-0.4,0-0.6,0.1L5.5,957.2z
		 M14.5,958.8l5.3,1.4c0.1,0,0.2,0.1,0.2,0.1c0,0.1,0,0.1,0,0.2l0,0l-0.8,3c-0.8-0.8-1.9-1.9-2.9-2.9
		C15.4,959.7,15.3,959.6,14.5,958.8z M7.1,959.1c0.3,0,0.5,0.2,0.5,0.5S7.4,960,7.1,960s-0.5-0.2-0.5-0.5S6.9,959.1,7.1,959.1z"/>
</g>
</svg>
