<?xml version="1.0" encoding="utf-8"?>
<!-- Generator: Adobe Illustrator 19.2.0, SVG Export Plug-In . SVG Version: 6.00 Build 0)  -->
<svg version="1.0" id="Layer_1" xmlns="http://www.w3.org/2000/svg" xmlns:xlink="http://www.w3.org/1999/xlink" x="0px" y="0px"
	 viewBox="0 0 1920 758.8" enable-background="new 0 0 1920 758.8" xml:space="preserve">
<g>
	<path fill="#808080" d="M775,354.9c-2.2-4.4-2.6-8.2-1.2-11.3c1.3-3.1,4.6-4.7,9.6-4.7h41.5c2.8,0,5.3,0.8,7.4,2.3
		c2.1,1.5,3.6,3.7,4.5,6.5c1.8,5.7,3.9,12.1,6.1,19.3c2.2,7.1,4.5,14.4,7,21.9c2.4,7.5,4.8,15,7.2,22.4c2.4,7.4,4.6,14.2,6.6,20.4
		c2,6.2,3.8,11.6,5.3,16.2c1.6,4.6,2.7,7.9,3.5,9.8l34.3-110c1.4-3.5,3-5.8,4.8-7c1.8-1.2,4.3-1.8,7.5-1.8h42.6
		c3.1,0,5.5,0.4,7.1,1.1c1.6,0.8,2.7,1.8,3.2,3.1c0.5,1.3,0.6,2.8,0.3,4.5c-0.3,1.7-0.9,3.4-1.6,5.3l-77.1,184.8
		c-1.2,1.9-2.6,3.6-4.2,4.9c-1.6,1.4-4,2-7.3,2h-19.3c-4.3,0-7.4-0.6-9.1-1.9c-1.8-1.2-3.1-2.9-4-5.1L775,354.9z"/>
	<path fill="#808080" d="M1197.7,532.6c0,1.8-0.3,3.6-1,5.3c-0.6,1.7-1.7,3-3.2,4c-1.2,1.2-2.6,1.9-4.2,2.3c-1.6,0.3-3,0.5-4.2,0.5
		h-31.9c-2.3,0-4.1-0.3-5.5-0.9c-1.4-0.6-2.5-1.4-3.4-2.5c-0.9-1.1-1.6-2.4-2.2-4c-0.6-1.6-1.2-3.3-1.9-5.1l-2.1-7.3
		c-2.9,2.9-6.2,5.8-10,8.6c-3.7,2.8-7.8,5.3-12.3,7.5c-4.5,2.2-9.3,4-14.4,5.3c-5.1,1.3-10.4,2-16,2c-9.8,0-19.2-1.2-28.3-3.7
		c-9-2.5-17.4-6-25.3-10.6c-7.8-4.6-14.9-10.1-21.3-16.5c-6.4-6.4-11.9-13.6-16.4-21.5c-4.6-7.9-8.1-16.4-10.6-25.5
		c-2.5-9.1-3.7-18.7-3.7-28.6c0-15,2.8-29,8.3-41.9c5.5-12.9,13-24.1,22.5-33.7c9.5-9.6,20.7-17.1,33.5-22.5
		c12.8-5.5,26.6-8.2,41.3-8.2c6.7,0,12.9,0.8,18.7,2.3c5.8,1.5,11.1,3.6,15.9,6.2c4.8,2.6,9.2,5.7,13,9.3c3.9,3.6,7.3,7.5,10.2,11.7
		l4.7-14.7c1.1-2.7,2-4.9,2.7-6.6c0.7-1.7,1.5-2.9,2.3-3.7c0.8-0.8,1.8-1.3,3-1.6c1.2-0.3,2.9-0.4,5-0.4h24.1c1.2,0,2.6,0.2,4.2,0.5
		c1.6,0.3,3,1.1,4.2,2.3c1.5,1.2,2.6,2.5,3.2,4c0.6,1.5,1,3.2,1,5.2V532.6z M1038.2,441.9c0,7.1,1.1,13.8,3.3,20
		c2.2,6.2,5.4,11.6,9.5,16.1c4.1,4.5,9,8.1,14.8,10.8c5.8,2.6,12.2,4,19.2,4c7.2,0,14-1.3,20.2-4c6.2-2.6,11.6-6.2,16.2-10.8
		c4.6-4.5,8.2-9.9,10.8-16.1c2.6-6.2,3.9-12.9,3.9-20c0-6.9-1.3-13.5-3.9-19.8c-2.6-6.3-6.2-11.8-10.8-16.5
		c-4.6-4.8-10-8.5-16.2-11.3c-6.2-2.8-12.9-4.1-20.2-4.1c-7,0-13.4,1.4-19.2,4.1c-5.8,2.8-10.7,6.5-14.8,11.3
		c-4.1,4.8-7.3,10.3-9.5,16.5C1039.3,428.4,1038.2,435,1038.2,441.9z"/>
	<path fill="#808080" d="M1224.1,354.5c-1.7-4.3-1.8-8-0.1-11.1c1.7-3.1,5.4-4.6,11.1-4.6h40c2.7,0,4.9,0.8,6.6,2.5
		c1.7,1.7,3,3.8,3.9,6.2l45.8,130.4l44.9-130.4c1.2-3.5,2.7-5.8,4.5-7c1.8-1.2,4.4-1.8,7.6-1.8h41.6c3,0,5.4,0.4,7.1,1.2
		c1.7,0.8,2.9,1.9,3.6,3.2c0.7,1.4,0.9,2.9,0.7,4.5c-0.2,1.7-0.6,3.3-1.3,4.9c-4.1,10.2-8.6,21.2-13.4,33.3
		c-4.9,12-9.9,24.6-15.1,37.6c-5.2,13-10.6,26.2-16,39.7c-5.4,13.4-10.7,26.6-15.8,39.6c-5.1,13-10.1,25.4-14.8,37.3
		c-4.8,11.9-9.1,22.9-13,32.9c-3.9,10-7.4,18.8-10.3,26.3c-2.9,7.6-5.1,13.4-6.6,17.5l0.5-0.8c-0.8,2.9-2.1,5.3-4.1,7
		c-1.9,1.8-4.3,2.7-7.1,2.7h-37.4c-4.9,0-8.2-0.9-10-2.8c-1.8-1.9-2.7-4.7-2.7-8.3c0-1.4,0.2-2.5,0.6-3.2c0.4-0.8,0.7-1.2,0.9-1.5
		l25.4-66.1L1224.1,354.5z"/>
	<path fill="#808080" d="M1668.7,532.6c0,1.8-0.3,3.6-1,5.3c-0.6,1.7-1.7,3-3.2,4c-1.2,1.2-2.6,1.9-4.2,2.3c-1.6,0.3-3,0.5-4.2,0.5
		h-31.9c-2.3,0-4.1-0.3-5.5-0.9c-1.4-0.6-2.5-1.4-3.4-2.5c-0.9-1.1-1.6-2.4-2.2-4c-0.6-1.6-1.2-3.3-1.9-5.1l-2.1-7.3
		c-2.9,2.9-6.2,5.8-10,8.6c-3.7,2.8-7.8,5.3-12.3,7.5c-4.5,2.2-9.3,4-14.4,5.3c-5.1,1.3-10.4,2-16,2c-9.8,0-19.2-1.2-28.3-3.7
		c-9-2.5-17.4-6-25.3-10.6c-7.8-4.6-14.9-10.1-21.3-16.5c-6.4-6.4-11.9-13.6-16.4-21.5c-4.6-7.9-8.1-16.4-10.6-25.5
		c-2.5-9.1-3.7-18.7-3.7-28.6c0-15,2.8-29,8.3-41.9c5.5-12.9,13-24.1,22.5-33.7c9.5-9.6,20.7-17.1,33.5-22.5
		c12.8-5.5,26.6-8.2,41.3-8.2c6.7,0,12.9,0.8,18.7,2.3c5.8,1.5,11.1,3.6,15.9,6.2c4.8,2.6,9.2,5.7,13,9.3c3.9,3.6,7.3,7.5,10.2,11.7
		l4.7-14.7c1.1-2.7,2-4.9,2.7-6.6c0.7-1.7,1.5-2.9,2.3-3.7c0.8-0.8,1.8-1.3,3-1.6c1.2-0.3,2.9-0.4,5-0.4h24.1c1.2,0,2.6,0.2,4.2,0.5
		c1.6,0.3,3,1.1,4.2,2.3c1.5,1.2,2.6,2.5,3.2,4c0.6,1.5,1,3.2,1,5.2V532.6z M1509.1,441.9c0,7.1,1.1,13.8,3.3,20
		c2.2,6.2,5.4,11.6,9.5,16.1c4.1,4.5,9,8.1,14.8,10.8c5.8,2.6,12.2,4,19.2,4c7.2,0,14-1.3,20.2-4c6.2-2.6,11.6-6.2,16.2-10.8
		c4.6-4.5,8.2-9.9,10.8-16.1c2.6-6.2,3.9-12.9,3.9-20c0-6.9-1.3-13.5-3.9-19.8c-2.6-6.3-6.2-11.8-10.8-16.5
		c-4.6-4.8-10-8.5-16.2-11.3c-6.2-2.8-12.9-4.1-20.2-4.1c-7,0-13.4,1.4-19.2,4.1c-5.8,2.8-10.7,6.5-14.8,11.3
		c-4.1,4.8-7.3,10.3-9.5,16.5C1510.3,428.4,1509.1,435,1509.1,441.9z"/>
	<path fill="#0071BC" d="M1727.1,341.8c0-10,2.2-19.5,6.5-28.3c4.3-8.9,10.1-16.6,17.3-23.2c7.2-6.6,15.5-11.9,24.9-15.7
		c9.4-3.8,19.2-5.8,29.5-5.8h3.2c3.7,0,6.5,1.1,8.5,3.3c2,2.2,3,5.3,3,9.1v30.9c0,4-1.1,7.3-3.2,10c-2.1,2.6-4.9,4-8.3,4h-3.2
		c-2.3,0-4.4,0.4-6.5,1.2c-2.1,0.8-3.9,1.9-5.5,3.3c-1.6,1.4-2.9,3.1-3.9,4.9c-1,1.9-1.5,4-1.5,6.2v18.6h25.4c3.7,0,6.5,1,8.5,3
		c2,2,3,5.2,3,9.5v29.6c0,4.6-1,8-3,10.2c-2,2.2-4.8,3.2-8.5,3.2H1788v116.1c0,4.1-1.4,7.2-4.1,9.3c-2.8,2.1-5.7,3.2-9,3.2h-35
		c-3.9,0-7-1.2-9.3-3.6c-2.3-2.4-3.5-5.4-3.5-8.8V416h-16.7c-3.8,0-6.8-1.1-9.2-3.2c-2.3-2.2-3.5-5.6-3.5-10.2v-29.6
		c0-4.3,1.2-7.5,3.5-9.5c2.3-2,5.4-3,9.2-3h16.7V341.8z"/>
	<path fill="#0071BC" d="M1847.8,269.6c0-4.5,1-7.7,2.9-9.6c1.9-1.9,5-2.8,9.1-2.8h37.6c3.8,0,6.8,0.9,9.2,2.8
		c2.3,1.9,3.5,5.1,3.5,9.6v31.6c0,1.3-0.3,2.7-0.9,4.2c-0.6,1.5-1.4,3-2.5,4.4c-1.1,1.4-2.4,2.6-4,3.5c-1.6,0.9-3.3,1.4-5.3,1.4
		h-37.6c-8,0-12-4.5-12-13.4V269.6z M1847.8,351.5c0-3.5,1-6.4,2.9-8.9c1.9-2.5,5-3.7,9.1-3.7h37.1c1.3,0,2.7,0.3,4.2,0.9
		c1.5,0.6,2.9,1.5,4.2,2.6c1.3,1.1,2.4,2.5,3.3,4c0.9,1.5,1.4,3.2,1.4,5.2v180.6c0,4.1-1.1,7.2-3.4,9.3c-2.3,2.1-5.5,3.2-9.7,3.2
		h-37.1c-8,0-12-4.2-12-12.5V351.5z"/>
</g>
<path fill="#0071BC" d="M226.5,195.9l219.6,362.5c5.4,8.9-1,20.2-11.4,20.2H244.7c-4.7,0-9-2.4-11.4-6.4L13.7,209.7
	c-5.4-8.9,1-20.2,11.4-20.2h190.1C219.8,189.5,224.1,191.9,226.5,195.9z"/>
<path fill="#0071BC" d="M454.7,195.9L235.1,558.4c-5.4,8.9,1,20.2,11.4,20.2h190.1c4.7,0,9-2.4,11.4-6.4l219.6-362.5
	c5.4-8.9-1-20.2-11.4-20.2H466.1C461.4,189.5,457.1,191.9,454.7,195.9z"/>
<path fill="#FFD100" d="M267.9,636.9l57.7,97.9c6.7,11.4,23.2,11.3,29.8-0.2l56.1-97.9c6.6-11.5-1.7-25.8-14.9-25.8H282.8
	C269.5,610.9,261.2,625.4,267.9,636.9z"/>
<circle fill="#FFD100" cx="339.7" cy="102.5" r="87"/>
</svg>
